<svg id="svg" fill="#000000" stroke="#000000" width="200px" height="200px" version="1.1" viewBox="144 144 512 512" xmlns="http://www.w3.org/2000/svg">
    <g id="IconSvg_bgCarrier" stroke-width="0"></g>
    <g id="IconSvg_tracerCarrier" stroke-linecap="round" stroke-linejoin="round" stroke="#CCCCCC"></g>
     <g id="IconSvg_iconCarrier">
      <path xmlns="http://www.w3.org/2000/svg" fill="#000000" d="M237 1286h231V592H237v694zm246-908q-1-52-36-86t-93-34t-94.5 34t-36.5 86q0 51 35.5 85.5T351 498h1q59 0 95-34.5t36-85.5zm585 908h231V888q0-154-73-233t-193-79q-136 0-209 117h2V592H595q3 66 0 694h231V898q0-38 7-56q15-35 45-59.5t74-24.5q116 0 116 157v371zm468-998v960q0 119-84.5 203.5T1248 1536H288q-119 0-203.5-84.5T0 1248V288Q0 169 84.5 84.5T288 0h960q119 0 203.5 84.5T1536 288z"></path>

      </g>
      </svg>